<?xml version="1.0" encoding="UTF-8"?>
<svg id="Layer_1" data-name="Layer 1" xmlns="http://www.w3.org/2000/svg" xmlns:xlink="http://www.w3.org/1999/xlink" viewBox="0 0 360 640">
  <defs>
    <linearGradient id="linear-gradient" x1="-1075.97" y1="863.49" x2="-1074.97" y2="863.49" gradientTransform="translate(-310677 688623) rotate(90) scale(640 -360)" gradientUnits="userSpaceOnUse">
      <stop offset="0" stop-color="#fff"/>
      <stop offset="1" stop-color="#fafafa"/>
    </linearGradient>
    <linearGradient id="linear-gradient-2" x1="-1075.63" y1="873.96" x2="-1074.63" y2="873.96" gradientTransform="translate(-69597 516303) rotate(90) scale(480 -80)" gradientUnits="userSpaceOnUse">
      <stop offset="0" stop-color="#f97316"/>
      <stop offset=".5" stop-color="#ea580c"/>
      <stop offset="1" stop-color="#ef4444"/>
    </linearGradient>
    <linearGradient id="linear-gradient-3" x1="-1075.63" y1="927.81" x2="-1074.63" y2="927.81" gradientTransform="translate(-14557 516303) rotate(90) scale(480 -16)" gradientUnits="userSpaceOnUse">
      <stop offset="0" stop-color="#f97316"/>
      <stop offset=".5" stop-color="#ea580c"/>
      <stop offset="1" stop-color="#ef4444"/>
    </linearGradient>
    <radialGradient id="radial-gradient" cx="-1065.55" cy="878.45" fx="-1065.55" fy="878.45" r=".5" gradientTransform="translate(-52387 64353) rotate(90) scale(60 -60)" gradientUnits="userSpaceOnUse">
      <stop offset="0" stop-color="#fff7ed" stop-opacity=".8"/>
      <stop offset="1" stop-color="#fed7aa" stop-opacity=".3"/>
    </radialGradient>
    <pattern id="SVGID_0000006002591959071554197" data-name="SVGID 0000006002591959071554197" x="0" y="0" width="30" height="30" patternTransform="translate(58 17722)" patternUnits="userSpaceOnUse" viewBox="0 0 30 30">
      <g>
        <rect width="30" height="30" fill="none"/>
        <g>
          <rect width="30" height="30" fill="none"/>
          <g>
            <rect width="30" height="30" fill="none"/>
            <circle cx="15" cy="15" r="10" fill="none" stroke="#f97316"/>
          </g>
        </g>
      </g>
    </pattern>
  </defs>
  <g opacity=".3">
    <circle cx="30" cy="30" r="8" fill="#6b7280"/>
    <path d="M26,30l4-4,4,4-4,4-4-4Z" fill="#fff"/>
  </g>
  <path d="M360,16V624c0,8.8-7.2,16-16,16H16c-8.8,0-16-7.2-16-16V16C0,7.2,7.2,0,16,0H344c8.8,0,16,7.2,16,16Z" fill="url(#linear-gradient)"/>
  <path d="M360,16V464c0,8.8-7.2,16-16,16h-48c-8.8,0-16-7.2-16-16V16c0-8.8,7.2-16,16-16h48c8.8,0,16,7.2,16,16Z" fill="url(#linear-gradient-2)"/>
  <rect x="280" width="16" height="480" fill="url(#linear-gradient-3)"/>
  <circle cx="320" cy="420" r="30" fill="url(#radial-gradient)" isolation="isolate" opacity=".6"/>
  <circle cx="340" cy="450" r="15" fill="#fff" isolation="isolate" opacity=".2"/>
  <path d="M260,28V172c0,4.4-3.6,8-8,8h-84c-4.4,0-8-3.6-8-8V28c0-4.4,3.6-8,8-8h84c4.4,0,8,3.6,8,8Z" fill="#f3f4f6" stroke="#e5e7eb" stroke-width="2"/>
  <text transform="translate(215 62.51) rotate(90)" fill="#9ca3af" font-family="ArialMT, Arial" font-size="11" isolation="isolate"><tspan x="0" y="0">EVEN</tspan><tspan x="29.95" y="0" letter-spacing="-.02em">T</tspan><tspan x="36.48" y="0" xml:space="preserve"> IMAGE</tspan></text>
  <text transform="translate(200 77.98) rotate(90)" fill="#9ca3af" font-family="ArialMT, Arial" font-size="9" isolation="isolate"><tspan x="0" y="0">400x300px</tspan></text>
  <g id="eventDetails">
    <text id="eventName" transform="translate(235 200) rotate(90)" fill="#111827" font-family="ProductSans-Bold, &apos;Product Sans&apos;" font-size="22" isolation="isolate"><tspan x="0" y="0">EVENT NAME</tspan></text>
    <g id="eventDescription-2">
      <text id="eventDescription" data-name="eventDescription" transform="translate(214.71 199.95) rotate(90)" fill="#6b7280" font-family="ProductSans-Regular, &apos;Product Sans&apos;" font-size="16" isolation="isolate"><tspan x="0" y="0">EVENT DESCRIPT</tspan><tspan x="121.68" y="0" letter-spacing="-.01em">I</tspan><tspan x="125.29" y="0">ON</tspan></text>
    </g>
    <text id="date" transform="translate(185 201) rotate(90)" fill="#6b7280" font-family="ProductSans-Regular, &apos;Product Sans&apos;" font-size="13" isolation="isolate"><tspan x="0" y="0" letter-spacing="-.02em">F</tspan><tspan x="6.53" y="0" letter-spacing="0em">r</tspan><tspan x="11.25" y="0" letter-spacing="0em">id</tspan><tspan x="21.46" y="0" letter-spacing="0em">a</tspan><tspan x="27.96" y="0" letter-spacing="-.07em">y</tspan><tspan x="33.53" y="0" letter-spacing="0em">, </tspan><tspan x="39.4" y="0" letter-spacing="-.02em">M</tspan><tspan x="50" y="0" letter-spacing="0em">a</tspan><tspan x="56.63" y="0" letter-spacing="-.03em">r</tspan><tspan x="60.96" y="0" letter-spacing="0em">ch </tspan><tspan x="77.65" y="0" letter-spacing=".01em">1</tspan><tspan x="82.77" y="0">5, 2</tspan><tspan x="102.62" y="0" letter-spacing="-.01em">0</tspan><tspan x="110.78" y="0" letter-spacing="0em">25</tspan></text>
    <text id="time" transform="translate(168 201) rotate(90)" fill="#6b7280" font-family="ProductSans-Regular, &apos;Product Sans&apos;" font-size="13" isolation="isolate"><tspan x="0" y="0">7:30 PM - 11:00 PM</tspan></text>
    <text id="location" transform="translate(150 200) rotate(90)" fill="#6b7280" font-family="ProductSans-Regular, &apos;Product Sans&apos;" font-size="11" isolation="isolate"><tspan x="0" y="0" letter-spacing=".01em">1</tspan><tspan x="4.33" y="0">23 </tspan><tspan x="18.31" y="0" letter-spacing="-.02em">E</tspan><tspan x="24.06" y="0" letter-spacing="-.02em">v</tspan><tspan x="29.37" y="0">e</tspan><tspan x="35.27" y="0" letter-spacing="-.02em">n</tspan><tspan x="40.95" y="0">t</tspan><tspan x="44.85" y="0" letter-spacing="-.03em"> </tspan><tspan x="46.94" y="0" letter-spacing="-.02em">S</tspan><tspan x="52.74" y="0" letter-spacing="0em">t</tspan><tspan x="56.64" y="0" letter-spacing="-.03em">r</tspan><tspan x="60.3" y="0" letter-spacing="0em">e</tspan><tspan x="66.25" y="0" letter-spacing="-.02em">e</tspan><tspan x="71.98" y="0">t,</tspan><tspan x="78.43" y="0" letter-spacing="-.02em"> </tspan><tspan x="80.63" y="0" letter-spacing="-.01em">C</tspan><tspan x="88.54" y="0" letter-spacing="0em">i</tspan><tspan x="90.9" y="0" letter-spacing="0em">t</tspan><tspan x="94.85" y="0" letter-spacing="-.07em">y</tspan><tspan x="99.56" y="0">,</tspan><tspan x="102.11" y="0" letter-spacing="-.03em"> </tspan><tspan x="104.2" y="0" letter-spacing="-.02em">S</tspan><tspan x="110.01" y="0" letter-spacing="-.01em">ta</tspan><tspan x="119.29" y="0" letter-spacing="0em">t</tspan><tspan x="123.13" y="0">e </tspan><tspan x="131.45" y="0" letter-spacing=".01em">1</tspan><tspan x="135.78" y="0">2345</tspan></text>
  </g>
  <line x1="140" y1="20" x2="140" y2="460" fill="none" stroke="#e5e7eb" stroke-dasharray="0 0 5 5"/>
  <g id="attendeeDetails">
    <text transform="translate(120 20) rotate(90)" fill="#111827" font-family="ProductSans-Bold, &apos;Product Sans&apos;" font-size="14" isolation="isolate"><tspan x="0" y="0" letter-spacing="-.03em">T</tspan><tspan x="7.74" y="0" letter-spacing="0em">i</tspan><tspan x="11.3" y="0">c</tspan><tspan x="18.93" y="0" letter-spacing="-.01em">ke</tspan><tspan x="33.71" y="0">t H</tspan><tspan x="52.42" y="0" letter-spacing="0em">old</tspan><tspan x="72.07" y="0">er</tspan></text>
    <text id="fullName" transform="translate(100 20) rotate(90)" fill="#374151" font-family="ProductSans-Regular, &apos;Product Sans&apos;" font-size="13" isolation="isolate"><tspan x="0" y="0" letter-spacing="-.06em">A</tspan><tspan x="7.84" y="0" letter-spacing="0em">TTENDEE NAME</tspan></text>
    <text id="ticketID" transform="translate(80 20) rotate(90)" fill="#6b7280" font-family="ProductSans-Regular, &apos;Product Sans&apos;" font-size="11" isolation="isolate"><tspan x="0" y="0" letter-spacing="-.03em">T</tspan><tspan x="5.61" y="0" letter-spacing="0em">i</tspan><tspan x="7.98" y="0">c</tspan><tspan x="13.72" y="0" letter-spacing="-.02em">ke</tspan><tspan x="24.6" y="0" letter-spacing="0em">t ID:</tspan><tspan x="43.66" y="0" letter-spacing="-.04em"> </tspan><tspan x="45.64" y="0">TK</tspan><tspan x="58.42" y="0" letter-spacing="-.04em">T</tspan><tspan x="63.92" y="0">-ABC</tspan><tspan x="90.57" y="0" letter-spacing="0em">1</tspan><tspan x="94.91" y="0" letter-spacing="0em">23456</tspan></text>
    <text id="ticketType" transform="translate(65 20) rotate(90)" fill="#6b7280" font-family="ProductSans-Regular, &apos;Product Sans&apos;" font-size="11" isolation="isolate"><tspan x="0" y="0" letter-spacing="-.06em">T</tspan><tspan x="5.28" y="0">ype:</tspan><tspan x="25.5" y="0" letter-spacing="-.02em"> </tspan><tspan x="27.7" y="0" letter-spacing="0em">G</tspan><tspan x="36.45" y="0">ene</tspan><tspan x="54.21" y="0" letter-spacing="-.02em">r</tspan><tspan x="57.98" y="0">al</tspan><tspan x="65.83" y="0" letter-spacing="-.03em"> </tspan><tspan x="67.92" y="0" letter-spacing="-.02em">A</tspan><tspan x="75.11" y="0" letter-spacing="0em">dmis</tspan><tspan x="98.24" y="0" letter-spacing="0em">si</tspan><tspan x="105.55" y="0" letter-spacing="-.01em">o</tspan><tspan x="111.6" y="0">n</tspan></text>
  </g>
  <g id="footer">
    <text transform="translate(20 20) rotate(90)" fill="#9ca3af" font-family="ProductSans-Regular, &apos;Product Sans&apos;" font-size="9" isolation="isolate"><tspan x="0" y="0" letter-spacing="-.03em">P</tspan><tspan x="4.76" y="0" letter-spacing="-.01em">ow</tspan><tspan x="16.41" y="0">e</tspan><tspan x="21.23" y="0" letter-spacing="-.03em">r</tspan><tspan x="24.23" y="0" letter-spacing="0em">e</tspan><tspan x="29.1" y="0">d </tspan><tspan x="36.26" y="0" letter-spacing="-.02em">b</tspan><tspan x="41.26" y="0">y t</tspan><tspan x="50.91" y="0" letter-spacing="0em">C</tspan><tspan x="57.38" y="0" letter-spacing="-.01em">ke</tspan><tspan x="66.28" y="0">t</tspan><tspan x="69.47" y="0" letter-spacing="-.02em">M</tspan><tspan x="76.8" y="0" letter-spacing="0em">a</tspan><tspan x="81.4" y="0" letter-spacing="0em">nag</tspan><tspan x="95.91" y="0">e 2</tspan><tspan x="107.4" y="0" letter-spacing="0em">0</tspan><tspan x="113.05" y="0" letter-spacing="0em">25</tspan></text>
  </g>
  <g id="logo">
    <text transform="translate(323 80) rotate(90)" fill="#fff" font-family="ProductSans-Bold, &apos;Product Sans&apos;" font-size="14" isolation="isolate"><tspan x="0" y="0">t</tspan><tspan x="5.61" y="0" letter-spacing="0em">C</tspan><tspan x="15.75" y="0" letter-spacing="-.01em">ke</tspan><tspan x="30.53" y="0">t</tspan><tspan x="36.15" y="0" letter-spacing="-.01em">M</tspan><tspan x="47.94" y="0">a</tspan><tspan x="55.43" y="0" letter-spacing="0em">nag</tspan><tspan x="79.1" y="0">e</tspan></text>
    <text transform="translate(309 80) rotate(90)" fill="#fed7aa" font-family="ProductSans-Regular, &apos;Product Sans&apos;" font-size="8" isolation="isolate"><tspan x="0" y="0">2</tspan><tspan x="4.16" y="0" letter-spacing="-.01em">0</tspan><tspan x="9.18" y="0" letter-spacing="0em">25 P</tspan><tspan x="24.06" y="0" letter-spacing="-.03em">r</tspan><tspan x="26.72" y="0" letter-spacing="0em">o</tspan></text>
    <g>
      <path d="M314.9,36.4c.8-1.2,.8-2.7-.1-4l4.9-3.5c.4-.3,1-.2,1.3,.2l5.7,8.1" fill="none" stroke="#fff" stroke-linecap="round" stroke-linejoin="round" stroke-width="3"/>
      <path d="M328.7,39.9l13.5,19.1c.3,.4,.2,1-.2,1.3l-4.9,3.5c-1.1-1.6-3.3-2-4.9-.8-1.6,1.1-2,3.3-.8,4.9l-4.9,3.5c-.4,.3-1,.2-1.3-.2" fill="none" stroke="#fff" stroke-linecap="round" stroke-linejoin="round" stroke-width="3"/>
      <path d="M324.7,43.9v26.6c0,.5-.4,1-1,1h-6c0-1.9-1.6-3.5-3.5-3.5s-3.5,1.6-3.5,3.5h-6c-.5,0-1-.4-1-1v-5.6" fill="none" stroke="#fff" stroke-linecap="round" stroke-linejoin="round" stroke-width="3"/>
      <path d="M303.7,60.4v-26.4c0-.5,.4-1,1-1h6c0,1.9,1.6,3.5,3.5,3.5s3.5-1.6,3.5-3.5h6c.5,0,1,.4,1,1v5.4" fill="none" stroke="#fff" stroke-linecap="round" stroke-linejoin="round" stroke-width="3"/>
    </g>
  </g>
  <g id="security" opacity=".1">
    <rect x="80" width="200" height="480" fill="url(#SVGID_0000006002591959071554197)"/>
  </g>
  <line x1="360" y1="480" y2="480" fill="none" stroke="#e5e7eb" stroke-width="2"/>
  <g id="qrSection">
    <g id="qrCode">
      <path d="M140,503h111c2.8,0,5,2.2,5,5v109c0,2.8-2.2,5-5,5h-111c-2.8,0-5-2.2-5-5v-109c0-2.8,2.2-5,5-5Z" fill="#e5e7eb" stroke="#9ca3af"/>
    </g>
    <text transform="translate(116.63 513.96) rotate(90)" fill="#111827" font-family="Arial-BoldMT, Arial" font-size="11" isolation="isolate"><tspan x="0" y="0">SCAN </tspan><tspan x="34.22" y="0" letter-spacing="-.02em">T</tspan><tspan x="40.75" y="0">O VERIF</tspan><tspan x="84.75" y="0" letter-spacing="-.02em">Y</tspan></text>
    <text transform="translate(103.86 522.96) rotate(90)" fill="#6b7280" font-family="ArialMT, Arial" font-size="9" isolation="isolate"><tspan x="0" y="0">Show this QR Code</tspan></text>
    <text transform="translate(93.06 541.26) rotate(90)" fill="#6b7280" font-family="ArialMT, Arial" font-size="9" isolation="isolate"><tspan x="0" y="0">at Sign-ins</tspan></text>
    <path d="M350,498v124c0,4.4-3.6,8-8,8H18c-4.4,0-8-3.6-8-8v-124c0-4.4,3.6-8,8-8H342c4.4,0,8,3.6,8,8Z" fill="none" stroke="#e5e7eb"/>
  </g>
</svg>